<mxfile host="app.diagrams.net" modified="2024-07-12T01:53:05.713Z" agent="Mozilla/5.0 (X11; Ubuntu; Linux x86_64; rv:128.0) Gecko/20100101 Firefox/128.0" version="24.6.4" etag="gWW-_nkolML2Woz0v9B0" type="github">
  <diagram name="Page-1" id="5t9SXQHwzMr7FMVrbLiX">
    <mxGraphModel>
      <root>
        <mxCell id="0" />
        <mxCell id="1" parent="0" />
      </root>
    </mxGraphModel>
  </diagram>
</mxfile>
